<svg width="891" height="435" viewBox="0 0 891 435" fill="none" xmlns="http://www.w3.org/2000/svg" role="img" aria-labelledby="title desc">
  <title id="title">Golden Pocket logo lockup on dark</title>
  <desc id="desc">Preview of the vector-traced Golden Pocket logo on a dark background.</desc>
  <rect width="891" height="435" rx="18" fill="#030918"/>
  <path fill="#FFFFFF" fill-rule="evenodd" clip-rule="evenodd" d="
    M749.0 290.0 L737.0 303.0 L737.0 348.0 L749.0 361.0 L793.0 361.0 L805.0 346.0 L804.0 345.0 L755.0 345.0 L751.0 341.0 L751.0 334.0 L753.0 332.0 L803.0 332.0 L807.0 325.0 L807.0 303.0 L795.0 290.0 Z
    M751.0 311.0 L756.0 305.0 L788.0 305.0 L793.0 310.0 L793.0 317.0 L792.0 318.0 L759.0 318.0 L754.0 323.0 L751.0 322.0 Z
    M596.0 290.0 L583.0 304.0 L583.0 348.0 L596.0 361.0 L641.0 361.0 L650.0 347.0 L649.0 345.0 L602.0 345.0 L598.0 341.0 L598.0 310.0 L603.0 305.0 L648.0 305.0 L648.0 290.0 Z
    M510.0 290.0 L498.0 304.0 L498.0 348.0 L510.0 361.0 L558.0 361.0 L570.0 348.0 L570.0 303.0 L558.0 290.0 Z
    M517.0 305.0 L551.0 305.0 L556.0 310.0 L556.0 341.0 L552.0 345.0 L516.0 345.0 L513.0 342.0 L513.0 309.0 Z
    M828.0 269.0 L828.0 288.0 L826.0 290.0 L816.0 290.0 L816.0 305.0 L826.0 305.0 L828.0 307.0 L828.0 348.0 L840.0 361.0 L866.0 361.0 L866.0 345.0 L846.0 345.0 L843.0 342.0 L843.0 306.0 L844.0 305.0 L866.0 305.0 L866.0 290.0 L844.0 290.0 L843.0 289.0 L843.0 269.0 Z
    M662.0 262.0 L661.0 263.0 L661.0 361.0 L676.0 361.0 L677.0 360.0 L677.0 333.0 L678.0 332.0 L688.0 332.0 L695.0 339.0 L712.0 361.0 L731.0 361.0 L702.0 325.0 L703.0 322.0 L730.0 290.0 L711.0 290.0 L688.0 317.0 L678.0 318.0 L677.0 317.0 L677.0 263.0 L676.0 262.0 Z
    M472.0 262.0 L406.0 262.0 L405.0 264.0 L405.0 278.0 L406.0 279.0 L406.0 292.0 L405.0 293.0 L406.0 358.0 L405.0 359.0 L406.0 361.0 L409.0 362.0 L421.0 361.0 L421.0 327.0 L422.0 326.0 L473.0 326.0 L487.0 311.0 L487.0 278.0 Z
    M421.0 279.0 L422.0 278.0 L466.0 278.0 L472.0 284.0 L472.0 304.0 L466.0 310.0 L422.0 310.0 L421.0 309.0 Z
    M807.0 154.0 L795.0 167.0 L795.0 226.0 L796.0 227.0 L810.0 227.0 L810.0 175.0 L814.0 170.0 L847.0 170.0 L851.0 174.0 L852.0 182.0 L851.0 184.0 L852.0 227.0 L866.0 227.0 L866.0 168.0 L853.0 154.0 Z
    M726.0 154.0 L712.0 168.0 L712.0 213.0 L725.0 227.0 L770.0 227.0 L782.0 211.0 L731.0 211.0 L727.0 207.0 L727.0 200.0 L729.0 198.0 L782.0 198.0 L783.0 197.0 L783.0 168.0 L770.0 154.0 Z
    M727.0 175.0 L731.0 170.0 L764.0 170.0 L769.0 175.0 L769.0 182.0 L768.0 183.0 L734.0 183.0 L728.0 189.0 L727.0 188.0 Z
    M520.0 154.0 L506.0 168.0 L506.0 213.0 L520.0 227.0 L566.0 227.0 L579.0 213.0 L579.0 168.0 L566.0 154.0 Z
    M525.0 170.0 L560.0 170.0 L564.0 174.0 L564.0 207.0 L560.0 211.0 L526.0 211.0 L521.0 206.0 L521.0 174.0 Z
    M700.0 126.0 L684.0 126.0 L684.0 155.0 L683.0 156.0 L680.0 154.0 L641.0 154.0 L628.0 168.0 L628.0 213.0 L641.0 227.0 L679.0 227.0 L683.0 221.0 L685.0 222.0 L686.0 227.0 L700.0 227.0 Z
    M642.0 175.0 L647.0 170.0 L683.0 170.0 L684.0 171.0 L684.0 210.0 L683.0 211.0 L647.0 211.0 L642.0 206.0 Z
    M592.0 126.0 L592.0 213.0 L604.0 227.0 L619.0 227.0 L620.0 226.0 L619.0 225.0 L620.0 213.0 L619.0 212.0 L613.0 213.0 L607.0 207.0 L607.0 126.0 Z
    M421.0 126.0 L405.0 143.0 L405.0 210.0 L406.0 212.0 L421.0 227.0 L477.0 227.0 L493.0 210.0 L493.0 168.0 L448.0 168.0 L447.0 169.0 L448.0 172.0 L447.0 182.0 L451.0 184.0 L476.0 183.0 L477.0 184.0 L477.0 205.0 L471.0 211.0 L426.0 211.0 L421.0 206.0 L421.0 148.0 L426.0 143.0 L476.0 143.0 L482.0 134.0 L485.0 126.0 Z
    M179.0 24.0 L95.0 79.0 L24.0 128.0 L24.0 320.0 L39.0 331.0 L161.0 410.0 L164.0 410.0 L167.0 406.0 L167.0 196.0 L166.0 195.0 L141.0 195.0 L140.0 194.0 L135.0 195.0 L89.0 194.0 L87.0 195.0 L87.0 222.0 L95.0 231.0 L133.0 231.0 L134.0 232.0 L134.0 349.0 L132.0 350.0 L58.0 300.0 L58.0 147.0 L176.0 68.0 L180.0 67.0 L295.0 142.0 L299.0 146.0 L299.0 193.0 L297.0 195.0 L287.0 195.0 L286.0 194.0 L283.0 195.0 L268.0 195.0 L267.0 194.0 L196.0 194.0 L189.0 195.0 L189.0 406.0 L192.0 410.0 L197.0 409.0 L333.0 319.0 L333.0 126.0 L314.0 112.0 Z
    M298.0 231.0 L299.0 232.0 L299.0 298.0 L292.0 304.0 L243.0 337.0 L223.0 349.0 L222.0 348.0 L222.0 232.0 L223.0 231.0 Z
  "/>
</svg>
